<?xml version="1.0" encoding="utf-8"?>
<!-- Generator: Adobe Illustrator 26.0.2, SVG Export Plug-In . SVG Version: 6.00 Build 0)  -->
<svg version="1.1" id="Layer_1" xmlns="http://www.w3.org/2000/svg" xmlns:xlink="http://www.w3.org/1999/xlink" x="0px" y="0px"
	 viewBox="0 0 1006.7 282.5" style="enable-background:new 0 0 1006.7 282.5;" xml:space="preserve">
<style type="text/css">
	.st0{fill:#48FF9B;}
	.st1{fill:url(#SVGID_1_);}
	.st2{fill:url(#SVGID_00000064347794348988529180000013489236429808143549_);}
	.st3{fill:url(#SVGID_00000127045281007338654960000017157072810636389527_);}
	.st4{fill:url(#SVGID_00000059299687281376843840000007244448861276128681_);}
	.st5{fill:url(#SVGID_00000160190294943879805700000011982192018056063105_);}
</style>
<g>
	<g id="Layer_2_00000160148269826910282970000013486661099351015357_">
		<g id="wordmark">
			<path class="st0" d="M326.7,90.5v29c-5.6-1.7-11.3-2.6-17.1-2.8c-10.2,0-24.9,8.3-32,23.2v86.2h-30.7v-135h30.7v18.5
				c6.9-13,22.1-21.3,34.5-21.3C318.4,88.3,323.6,89.2,326.7,90.5z"/>
			<path class="st0" d="M385,48c-0.1,11-8.9,19.8-19.9,19.9c-10.9,0-19.8-8.8-19.8-19.8s8.8-19.7,19.8-19.7
				C375.8,28.4,385,37.5,385,48z M380.3,91.1v135.1h-30.7V91.1H380.3z"/>
			<path class="st0" d="M539.1,90.8v130.4c0,37.8-29.3,61.3-68,61.3c-26.8,0-65.5-11.3-67.4-49.2h30.9c0.8,14.9,16.6,23.5,35.4,23.5
				c21,0,38.4-13.8,38.4-34.5v-16.9c-7.2,11.6-25.1,20.4-43.1,20.4c-36.5,0-64.9-30.4-64.9-69.1c0-38.4,28.5-68.5,64.9-68.5
				c18,0,35.9,8.6,43.1,20.4v-18L539.1,90.8z M508.4,177.6v-40.9c-6.6-11.6-21.3-19.9-36.7-19.9c-23.2,0-40.9,17.1-40.9,40.1
				c0,23.2,17.7,40.3,40.9,40.3C486.9,197.2,501.8,188.9,508.4,177.6z"/>
			<path class="st0" d="M687.7,149.1v77.1h-30.9v-72.1c0-21.8-12.4-35.1-31.8-35.1c-13.5,0-27.1,7.2-33.7,18.8v88.4h-30.7V32.8h30.7
				v76.5c8-13,24-21,41.2-21C666.4,88.3,687.7,111.8,687.7,149.1z"/>
			<path class="st0" d="M758.1,120.4v54.4c0,17.1,10.5,24,25.4,24c3.3,0.1,6.7-0.3,9.9-1.1v28.4c-5.5,1.1-11,1.7-16.6,1.7
				c-29.8,0-49.7-18.2-49.7-52.5v-55h-25.7V91.1h25.7V54.9H758v36.2h35.3v29.3L758.1,120.4z"/>
			<path class="st0" d="M848.5,226.2h-30.7V32.8h30.7V226.2z"/>
			<path class="st0" d="M1006.7,91.1l-76.2,182.6h-33.1l24.3-54.7L868.1,91.1h33.1l36.2,92l36.2-92
				C973.6,91.1,1006.7,91.1,1006.7,91.1z"/>
			<path class="st0" d="M136.4,257.2c-48.2,0-87.2-39.1-87.3-87.2v-13.1c-18-3.1-29.1-9.3-36-15.4C4.7,134,0,124.5,0,114.8
				c0-6.6,2.2-16.4,12.6-26c8.9-8.2,21.8-14.4,36.7-18.1C51.4,31.1,84.2,0.1,123.9,0c19.7,0,38.7,8,52.5,22.1
				c14.3,14.4,22.4,33.6,22.3,52.8c-0.1,11.3-1.9,21.3-5.4,30.2c18.6,16.3,30.5,37.9,30.5,64.8c0,24.5-9,46.8-25.3,62.8
				C182.4,248.5,160.3,257.2,136.4,257.2z M81.6,158.6v11.3c0,30.2,24.5,54.7,54.8,54.8c32.2,0,54.8-22.5,54.8-54.8
				c0-14.7-5.8-27.6-17.2-38.5c-15.6,13.1-38.7,21.4-70.4,25.4C95.6,157.8,88.3,158.4,81.6,158.6z M81.6,99.4v26.7
				c5.4-0.2,11.3-0.7,17.8-1.6c20.3-2.5,34.5-6.8,44.3-12c-16.1-6.8-35.4-11.3-55.1-12.8C86.3,99.6,83.9,99.5,81.6,99.4z
				 M32.7,114.9c1.1,2.1,5.7,6.2,16.5,8.8v-19.1l-1.3,0.5C37.7,109,33.7,113.2,32.7,114.9z M82.3,67c2.9,0,5.8,0.1,8.7,0.4
				c26,2,52,8.4,74.1,19.3c0.7-4,1.1-8,1-12c0.1-10.4-4.7-21.5-12.8-29.6c-7.7-7.9-18.3-12.4-29.4-12.5C103.6,32.6,86.1,47,82.3,67z
				"/>
			
				<linearGradient id="SVGID_1_" gradientUnits="userSpaceOnUse" x1="26.6153" y1="185.3053" x2="64.4269" y2="203.0491" gradientTransform="matrix(1 0 0 -1 0 284)">
				<stop  offset="0.247" style="stop-color:#48FF9B"/>
				<stop  offset="0.3762" style="stop-color:#48F59B"/>
				<stop  offset="0.5926" style="stop-color:#48DB9B"/>
				<stop  offset="0.868" style="stop-color:#48B29B"/>
				<stop  offset="1" style="stop-color:#489B9B"/>
			</linearGradient>
			<path class="st1" d="M22.2,81.6l15.5,28.6c8.4-5.6,18.2-8.4,27.4-9.7L63.3,68C36.4,71.3,22.2,81.6,22.2,81.6z"/>
			
				<linearGradient id="SVGID_00000124856847712751513020000007361015260997130686_" gradientUnits="userSpaceOnUse" x1="64.4136" y1="199.4705" x2="107.1331" y2="200.353" gradientTransform="matrix(1 0 0 -1 0 284)">
				<stop  offset="0" style="stop-color:#489B9B"/>
				<stop  offset="0.1722" style="stop-color:#48AF9B"/>
				<stop  offset="0.5228" style="stop-color:#48E29B"/>
				<stop  offset="0.7017" style="stop-color:#48FF9B"/>
			</linearGradient>
			<path style="fill:url(#SVGID_00000124856847712751513020000007361015260997130686_);" d="M63.3,68l1.9,32.4
				c16-2.3,35.4,0.6,35.4,0.6l4.3-32.2C87.7,66.3,73.5,66.8,63.3,68z"/>
			
				<linearGradient id="SVGID_00000164501322609857071410000004737034177221942687_" gradientUnits="userSpaceOnUse" x1="65.35" y1="109.8" x2="65.35" y2="209.9" gradientTransform="matrix(1 0 0 -1 0 284)">
				<stop  offset="2.790179e-03" style="stop-color:#48FF9B"/>
				<stop  offset="0.3011" style="stop-color:#489B9B;stop-opacity:0.7"/>
				<stop  offset="0.3973" style="stop-color:#48BA9B;stop-opacity:0.77"/>
				<stop  offset="0.534" style="stop-color:#48DF9B;stop-opacity:0.8696"/>
				<stop  offset="0.6442" style="stop-color:#48F69B;stop-opacity:0.9498"/>
				<stop  offset="0.7132" style="stop-color:#48FF9B"/>
			</linearGradient>
			
				<rect x="49.1" y="74.1" style="fill:url(#SVGID_00000164501322609857071410000004737034177221942687_);" width="32.5" height="100.1"/>
			
				<linearGradient id="SVGID_00000068641496443773333980000014963716562298516660_" gradientUnits="userSpaceOnUse" x1="176.6629" y1="170.8097" x2="206.0679" y2="140.7792" gradientTransform="matrix(1 0 0 -1 0 284)">
				<stop  offset="0" style="stop-color:#489B9B;stop-opacity:0.8"/>
				<stop  offset="0.5876" style="stop-color:#48FF9B"/>
			</linearGradient>
			<path style="fill:url(#SVGID_00000068641496443773333980000014963716562298516660_);" d="M186.7,99.7c-6.7,8.4-13.4,16.9-20,25.5
				c15.9,12,20,23.7,20,23.7l27.7-17.5C207.3,118.1,197.2,107.7,186.7,99.7z"/>
			
				<linearGradient id="SVGID_00000049198709396224400930000016811888466140513699_" gradientUnits="userSpaceOnUse" x1="133.7753" y1="193.8169" x2="181.2823" y2="170.0539" gradientTransform="matrix(1 0 0 -1 0 284)">
				<stop  offset="0.2118" style="stop-color:#48FF9B"/>
				<stop  offset="1" style="stop-color:#489B9B;stop-opacity:0.8"/>
			</linearGradient>
			<path style="fill:url(#SVGID_00000049198709396224400930000016811888466140513699_);" d="M141.5,77.1l-12.6,30.1
				c16.9,4.8,29.1,11.4,37.7,17.9c6.7-8.6,13.3-17.1,20-25.5C164.9,83.2,141.5,77.1,141.5,77.1z"/>
			<path class="st0" d="M74.2,158.8c-22.6,0-46-4-61-17.3C4.7,134,0,124.5,0,114.8h32.5c0-0.2,0-0.3,0-0.5c1,3.6,15.9,16.6,67,10.2
				c66.4-8.3,66.6-35.4,66.7-50c0.1-10.4-4.7-21.5-12.8-29.6c-7.7-7.9-18.3-12.4-29.4-12.5c-23.4,0-42.3,18.9-42.3,42.3l0,0H49.1
				C49.2,33.5,82.6,0,123.9,0c19.7,0,38.7,8,52.5,22.1c14.3,14.4,22.4,33.6,22.3,52.8c-0.2,23.1-7.5,40.9-22.3,54.5
				c-15.6,14.3-39.5,23.3-72.8,27.5C93.7,158.1,84,158.7,74.2,158.8z"/>
		</g>
	</g>
</g>
</svg>
